<svg xmlns="http://www.w3.org/2000/svg" width="14" height="14" viewBox="0 0 14 14">
  <path id="Shape_252" data-name="Shape 252" d="M1484.75,72h10.485s.89-1.75,1.75-7H1483C1483.875,70.251,1484.75,72,1484.75,72Zm8.312-6.125h1.313v5.25h-1.312Zm-2.479,0h1.313v5.25h-1.313Zm-2.479,0h1.313v5.25H1488.1Zm-2.479,0h1.312v5.25h-1.312Zm9.345-3.5-2.457-3.072a.875.875,0,1,0-.763.447.885.885,0,0,0,.25-.037l2.129,2.662h-8.26L1488,59.714a.884.884,0,0,0,.25.037.875.875,0,1,0-.763-.447l-2.457,3.072H1483v1.75h14v-1.75Z" transform="translate(-1483 -58)" fill="#fff"/>
</svg>
