<svg xmlns="http://www.w3.org/2000/svg" width="27" height="25" viewBox="0 0 27 25">
  <path id="Shape_254" data-name="Shape 254" d="M464.436,1909.334l-4.689-6.029a1.647,1.647,0,0,0,.128-.637,1.688,1.688,0,1,0-1.687,1.667,1.778,1.778,0,0,0,.221-.015l3.9,5.015H450.692l3.9-5.015a1.779,1.779,0,0,0,.221.015,1.667,1.667,0,1,0-1.688-1.667,1.647,1.647,0,0,0,.128.637l-4.689,6.029H443v3.333h1.688L446.375,1926h20.25l1.687-13.333H470v-3.333Zm-13,13.334h-3.375v-3.333h3.375Zm0-6.667h-3.375v-3.333h3.375Zm6.75,6.667h-3.375v-3.333h3.375Zm0-6.667h-3.375v-3.333h3.375Zm6.75,6.667h-3.375v-3.333h3.375Zm0-6.667h-3.375v-3.333h3.375Z" transform="translate(-443 -1901)" fill="#fff"/>
</svg>
