<svg xmlns="http://www.w3.org/2000/svg" width="21" height="18" viewBox="0 0 21 18">
  <path id="Shape_256" data-name="Shape 256" d="M1220.063,3294.572V3292h-13.125v2.572H1203v2.571a3.9,3.9,0,0,0,3.937,3.857,4.013,4.013,0,0,0,1.182-.177,6.574,6.574,0,0,0,4.068,2.619v3.986h-1.312a2.6,2.6,0,0,0-2.625,2.572h10.5a2.6,2.6,0,0,0-2.625-2.572h-1.313v-3.986a6.575,6.575,0,0,0,4.068-2.619,4.013,4.013,0,0,0,1.182.177,3.9,3.9,0,0,0,3.938-3.857v-2.571Zm-13.125,4.9a2.358,2.358,0,0,1-2.379-2.33v-1.286h2.379v1.286a6.3,6.3,0,0,0,.43,2.292A2.42,2.42,0,0,1,1206.938,3299.473Zm8.56-1.3,1.251,3.745-3.249-2.323-3.249,2.323,1.251-3.745-3.259-2.309,4.022.009,1.235-3.75,1.235,3.75,4.022-.009Zm6.944-1.028a2.358,2.358,0,0,1-2.379,2.33,2.42,2.42,0,0,1-.43-.039,6.3,6.3,0,0,0,.43-2.292v-1.286h2.379Z" transform="translate(-1203 -3292)" fill="#fff"/>
</svg>
