<svg xmlns="http://www.w3.org/2000/svg" width="24" height="20" viewBox="0 0 24 20">
  <path id="Shape_255" data-name="Shape 255" d="M618,3292H606l-6,6.154L612,3312l12-13.846Zm-6,15.641v-.064h-.056l-.333-.385H612v-.385h-.722l-.333-.385H612v-.385h-1.389l-.333-.385H612v-.385h-2.055l-.333-.385H612v-.385h-2.722l-.333-.385H612v-.385h-3.389l-.333-.385H612v-.385h-4.056l-.333-.385H612v-.385h-4.722l-.333-.384H612v-.385h-5.389l-.333-.385H612v-.385h-6.056l-.333-.385H612v-.385h-6.722l-.333-.385H612v-.385h-7.389l-.333-.385H612v-.385h-8.056l-.172-.2,3.26-3.343H612v.08h5.046l.375.384H612v.385h5.8l.375.385H612v.385h6.546l.375.385H612v.385h7.3l.375.385H612v.385h8.046l.181.186Z" transform="translate(-600 -3292)" fill="#fff"/>
</svg>
