<svg xmlns="http://www.w3.org/2000/svg" width="12" height="14" viewBox="0 0 12 14">
  <path id="Shape_247" data-name="Shape 247" d="M1142.091,1603.573l-1.61-1.644a3.542,3.542,0,0,0-2.195-.928h-6a1.3,1.3,0,0,0-1.286,1.312v11.375a1.3,1.3,0,0,0,1.286,1.313h9.429a1.3,1.3,0,0,0,1.286-1.313v-7.876A3.691,3.691,0,0,0,1142.091,1603.573Zm-3.377-.719.091.035a1.67,1.67,0,0,1,.464.276l1.61,1.644a1.691,1.691,0,0,1,.27.474c.013.032.025.062.035.092h-2.47Zm2.571,10.4h-8.571v-10.5h5.143v3.5h3.428Zm-7.714-5.25h6.857v.875h-6.857Zm0,1.749h6.857v.875h-6.857Zm0,1.75h6.857v.875h-6.857Z" transform="translate(-1131 -1601.001)" fill="#fff"/>
</svg>
